<svg id="Layer_1" data-name="Layer 1" xmlns="http://www.w3.org/2000/svg" viewBox="0 0 899.87 250.4"><title>Ather-Logo</title><path d="M728.7,116.2h18.7a11.29,11.29,0,0,1,11.3,11.3v.1a11.29,11.29,0,0,1-11.3,11.3H728.7a11.29,11.29,0,0,1-11.3-11.3v-.1A11.22,11.22,0,0,1,728.7,116.2Z"/><path d="M706.6,137.5v18.7a6,6,0,0,0,6,6H766a4.33,4.33,0,0,1,4.3,4.3v14.4a4.33,4.33,0,0,1-4.3,4.3H692.6a11.5,11.5,0,0,1-11.5-11.5V79.4a11.5,11.5,0,0,1,11.5-11.5h70.8a6,6,0,0,1,6,6v11a6,6,0,0,1-6,6H712.5a6,6,0,0,0-6,6v40.6Z"/><path d="M393.3,183.3l-9-22.1a2.5,2.5,0,0,0-2.4-1.6H335.7a2.6,2.6,0,0,0-2.4,1.6l-9,22.1a4.24,4.24,0,0,1-3.9,2.6h-17a4.25,4.25,0,0,1-3.9-5.9L342.6,78.7a18,18,0,0,1,16.6-10.9h0a18.17,18.17,0,0,1,16.6,10.9l43,101.3a4.25,4.25,0,0,1-3.9,5.9H397.2A4,4,0,0,1,393.3,183.3Zm-36.8-78.7-11.8,28.8a2.52,2.52,0,0,0,2.4,3.5h23.6a2.59,2.59,0,0,0,2.4-3.5l-11.8-28.8A2.62,2.62,0,0,0,356.5,104.6Z"/><path d="M485.6,95v86.7a4.33,4.33,0,0,1-4.3,4.3H464a4.33,4.33,0,0,1-4.3-4.3V95a2.58,2.58,0,0,0-2.6-2.6H428.2a4.33,4.33,0,0,1-4.3-4.3V72.9a4.33,4.33,0,0,1,4.3-4.3h88.7a4.33,4.33,0,0,1,4.3,4.3V88.2a4.33,4.33,0,0,1-4.3,4.3H488A2.46,2.46,0,0,0,485.6,95Z"/><path d="M621.9,181.7V141.4a2.58,2.58,0,0,0-2.6-2.6H576.8a2.58,2.58,0,0,0-2.6,2.6v40.3a4.33,4.33,0,0,1-4.3,4.3H552.8a4.33,4.33,0,0,1-4.3-4.3V72.9a4.33,4.33,0,0,1,4.3-4.3h17.3a4.33,4.33,0,0,1,4.3,4.3v39.6a2.58,2.58,0,0,0,2.6,2.6h42.5a2.58,2.58,0,0,0,2.6-2.6V72.9a4.33,4.33,0,0,1,4.3-4.3h17.3a4.33,4.33,0,0,1,4.3,4.3V181.7a4.33,4.33,0,0,1-4.3,4.3H626.4A4.44,4.44,0,0,1,621.9,181.7Z"/><path d="M869.8,184.1l-23.1-34.5a2.61,2.61,0,0,0-2.1-1.1H827.2a1.54,1.54,0,0,0-1.5,1.5v31.7a4.33,4.33,0,0,1-4.3,4.3H804.1a4.33,4.33,0,0,1-4.3-4.3V73.3a4.65,4.65,0,0,1,4.6-4.6h49c14,0,24.8,3.4,32.6,10.2s11.6,16.3,11.6,28.5v.3c0,9.5-2.3,17.2-7,23.2a39.8,39.8,0,0,1-16.4,12.4,1.53,1.53,0,0,0-.7,2.3l23,33.7A4.3,4.3,0,0,1,893,186H873.2A4.42,4.42,0,0,1,869.8,184.1Zm1.7-75.4q0-8.4-5.4-12.6c-3.6-2.8-8.5-4.2-14.9-4.2H828.1a2.58,2.58,0,0,0-2.6,2.6v28.6a2.58,2.58,0,0,0,2.6,2.6h23.7q9.6,0,14.7-4.5c3.4-3,5.1-7,5.1-12.1v-.4Z"/><path d="M250.7,124.8c.2,68.2-55.1,125.5-125.2,125.6A125.26,125.26,0,0,1,0,125.2C0,55.9,56.3.1,125.4,0,194.3,0,250.5,56.1,250.7,124.8ZM125,18.8C66.5,19,19.1,66.7,19.2,124.9c.1,58.4,47.8,105.8,106.3,105.8s105.9-47.7,105.9-106A106.18,106.18,0,0,0,125,18.8Z"/><path d="M109.6,86.5a21,21,0,0,0,2.4,9.2c5,9.7,9.9,19.5,14.9,29.2,5.9,11.6,11.8,23.1,17.7,34.7a18.76,18.76,0,0,0,12.3,10.2,19.41,19.41,0,0,0,22.3-28c-4.4-8.6-8.8-17.2-13.1-25.8-6.4-12.6-12.9-25.2-19.3-37.9a19.55,19.55,0,0,0-36.9,5.1C109.8,84.4,109.7,85.4,109.6,86.5Z"/><path d="M69,147.6a23,23,0,1,0,22.9-22.9A23.07,23.07,0,0,0,69,147.6Z"/></svg>